<svg xmlns="http://www.w3.org/2000/svg" xmlns:xlink="http://www.w3.org/1999/xlink" id="Calque_1" width="171" height="159" x="0" y="0" enable-background="new 0 0 171 159" version="1.1" viewBox="0 0 171 159" xml:space="preserve"><g><path d="M148.407,16.18c0,0.651-0.531,1.18-1.181,1.18c-0.651,0-1.179-0.529-1.179-1.18c0-0.651,0.527-1.18,1.179-1.18 C147.876,15,148.407,15.529,148.407,16.18"/><path d="M148.407,20.375c0,0.651-0.531,1.18-1.181,1.18c-0.651,0-1.179-0.529-1.179-1.18c0-0.651,0.527-1.18,1.179-1.18 C147.876,19.195,148.407,19.724,148.407,20.375"/><path d="M148.407,24.923c0,0.651-0.531,1.18-1.181,1.18c-0.651,0-1.179-0.529-1.179-1.18c0-0.651,0.527-1.18,1.179-1.18 C147.876,23.743,148.407,24.272,148.407,24.923"/><path d="M148.407,29.474c0,0.651-0.531,1.18-1.181,1.18c-0.651,0-1.179-0.529-1.179-1.18c0-0.651,0.527-1.18,1.179-1.18 C147.876,28.294,148.407,28.823,148.407,29.474"/><path d="M148.407,34.373c0,0.651-0.531,1.18-1.181,1.18c-0.651,0-1.179-0.529-1.179-1.18c0-0.651,0.527-1.18,1.179-1.18 C147.876,33.193,148.407,33.722,148.407,34.373"/><path d="M148.407,39.273c0,0.651-0.531,1.18-1.181,1.18c-0.651,0-1.179-0.529-1.179-1.18c0-0.651,0.527-1.18,1.179-1.18 C147.876,38.093,148.407,38.622,148.407,39.273"/><path d="M148.407,44.314c0,0.651-0.531,1.18-1.181,1.18c-0.651,0-1.179-0.529-1.179-1.18c0-0.651,0.527-1.18,1.179-1.18 C147.876,43.134,148.407,43.663,148.407,44.314"/><path d="M148.407,49.353c0,0.651-0.531,1.18-1.181,1.18c-0.651,0-1.179-0.529-1.179-1.18c0-0.651,0.527-1.18,1.179-1.18 C147.876,48.173,148.407,48.702,148.407,49.353"/><path d="M148.407,54.814c0,0.651-0.531,1.18-1.181,1.18c-0.651,0-1.179-0.529-1.179-1.18c0-0.651,0.527-1.18,1.179-1.18 C147.876,53.634,148.407,54.163,148.407,54.814"/><path d="M148.407,60.273c0,0.651-0.531,1.18-1.181,1.18c-0.651,0-1.179-0.529-1.179-1.18c0-0.651,0.527-1.18,1.179-1.18 C147.876,59.093,148.407,59.622,148.407,60.273"/><path d="M148.407,66.013c0,0.651-0.531,1.18-1.181,1.18c-0.651,0-1.179-0.529-1.179-1.18c0-0.651,0.527-1.18,1.179-1.18 C147.876,64.833,148.407,65.362,148.407,66.013"/><path d="M148.407,71.894c0,0.651-0.531,1.18-1.181,1.18c-0.651,0-1.179-0.529-1.179-1.18c0-0.651,0.527-1.18,1.179-1.18 C147.876,70.714,148.407,71.243,148.407,71.894"/><path d="M148.407,78.054c0,0.651-0.531,1.181-1.181,1.181c-0.651,0-1.179-0.529-1.179-1.181c0-0.651,0.527-1.18,1.179-1.18 C147.876,76.874,148.407,77.403,148.407,78.054"/><path d="M148.407,85.055c0,0.65-0.531,1.179-1.181,1.179c-0.651,0-1.179-0.528-1.179-1.179c0-0.651,0.527-1.18,1.179-1.18 C147.876,83.875,148.407,84.403,148.407,85.055"/><path d="M148.407,92.754c0,0.649-0.531,1.18-1.181,1.18c-0.651,0-1.179-0.53-1.179-1.18c0-0.652,0.527-1.181,1.179-1.181 C147.876,91.573,148.407,92.102,148.407,92.754"/><path d="M148.407,101.854c0,0.649-0.531,1.18-1.181,1.18c-0.651,0-1.179-0.53-1.179-1.18c0-0.651,0.527-1.18,1.179-1.18 C147.876,100.674,148.407,101.202,148.407,101.854"/><path d="M148.407,111.654c0,0.65-0.531,1.18-1.181,1.18c-0.651,0-1.179-0.529-1.179-1.18c0-0.652,0.527-1.18,1.179-1.18 C147.876,110.475,148.407,111.002,148.407,111.654"/><path d="M148.407,122.843c0,0.651-0.531,1.18-1.181,1.18c-0.651,0-1.179-0.528-1.179-1.18c0-0.648,0.527-1.181,1.179-1.181 C147.876,121.662,148.407,122.194,148.407,122.843"/><path d="M148.407,135.466c0,0.651-0.531,1.178-1.181,1.178c-0.651,0-1.179-0.526-1.179-1.178c0-0.654,0.527-1.183,1.179-1.183 C147.876,134.283,148.407,134.812,148.407,135.466"/><path d="M148.407,149.466c0,0.651-0.531,1.178-1.181,1.178c-0.651,0-1.179-0.526-1.179-1.178c0-0.654,0.527-1.183,1.179-1.183 C147.876,148.283,148.407,148.812,148.407,149.466"/><rect width="69.254" height="2.902" x="57.521" y="80.134"/><rect width="76.949" height="2.903" x="53.602" y="85.069"/><rect width="84.354" height="2.903" x="49.973" y="90.007"/><rect width="69.254" height="2.903" x="57.521" y="43.528"/><polygon points="71.534 41.659 92.148 35.488 112.331 41.659 120.751 41.659 92.148 32.803 63.112 41.659"/><polygon points="57.521 41.659 91.932 31.133 126.775 41.659 126.775 38.537 92.148 27.866 57.521 38.537"/><path d="M61.589,76.371c0,0,0,2.177,2.467,2.177c2.469,0,2.324-2.177,2.324-2.177V48.204h-1.816v28.239c0,0,0,0.509-0.653,0.509 c-0.654,0-0.508-0.653-0.508-0.653V48.204h-1.814V76.371z"/><polygon points="72.985 78.548 74.435 78.548 74.435 60.305 76.251 78.548 77.775 78.548 77.775 48.204 76.251 48.204 76.251 64.422 74.435 48.204 72.985 48.204"/><polygon points="84.527 78.548 89.173 78.548 89.173 76.951 86.559 76.951 86.559 63.231 88.519 63.231 88.519 61.562 86.559 61.562 86.559 49.729 88.519 49.729 88.519 48.204 84.527 48.204"/><path d="M111.241,57.206v-6.824c0,0-0.072-2.178-2.395-2.178c-2.322,0-2.322,2.178-2.322,2.178v25.989c0,0-0.075,2.177,2.322,2.177 c2.395,0,2.395-2.177,2.395-2.177v-7.623h-1.814v7.623c0,0,0,0.58-0.581,0.58c-0.544,0-0.654-0.58-0.654-0.58V50.382 c0,0,0-0.654,0.654-0.654c0.581,0,0.581,0.654,0.581,0.654v6.824H111.241z"/><path d="M121.042,76.371c0,0,0.071,0.581-0.654,0.581c-0.725,0-0.725-0.581-0.725-0.581V50.383c0,0,0-0.654,0.651-0.654 c0.728,0,0.728,0.654,0.728,0.654V76.371z M122.784,50.383c0,0,0.144-2.179-2.397-2.179c-2.539,0-2.539,2.179-2.539,2.179v25.988 c0,0,0,2.177,2.395,2.177c2.541,0,2.541-2.177,2.541-2.177V50.383z"/><path d="M97.958,76.371c0,0,0,0.581-0.474,0.543c-0.472-0.035-0.472-0.543-0.472-0.543v-7.622h-1.887v7.622 c0,0-0.072,2.177,2.322,2.177c2.396,0,2.396-2.177,2.396-2.177s0-5.082-0.002-6.565c-0.006-3.562-2.83-10.35-2.83-12.597v-6.826 c0,0-0.073-0.654,0.435-0.654c0.51,0,0.51,0.654,0.51,0.654v6.823h1.887v-6.823c0,0,0.072-2.251-2.323-2.179 c-2.395,0.073-2.395,2.179-2.395,2.179v5.807c0,3.811,2.832,10.235,2.832,13.175V76.371z"/><path d="M69.016,110.261c0,0.988-0.163,1.655-0.489,2.003c-0.326,0.348-0.872,0.521-1.638,0.521c-0.448,0-0.827-0.088-1.136-0.264 c-0.31-0.176-0.528-0.425-0.655-0.749c-0.127-0.324-0.191-0.828-0.191-1.512v-4.544h-1.042v4.549c0,0.834,0.101,1.492,0.301,1.974 c0.201,0.482,0.536,0.85,1.005,1.104c0.469,0.254,1.072,0.381,1.81,0.381c0.759,0,1.373-0.146,1.84-0.438 c0.467-0.292,0.791-0.671,0.97-1.136c0.179-0.466,0.269-1.095,0.269-1.886v-4.549h-1.042V110.261L69.016,110.261z M72.636,113.591 v-3.115c0-0.73,0.149-1.227,0.448-1.488c0.299-0.262,0.654-0.392,1.066-0.392c0.258,0,0.482,0.058,0.674,0.174 c0.191,0.117,0.325,0.272,0.4,0.468c0.075,0.195,0.112,0.489,0.112,0.884v3.47h0.967v-3.508c0-0.447-0.018-0.761-0.054-0.939 c-0.057-0.276-0.157-0.515-0.301-0.715c-0.143-0.2-0.359-0.362-0.647-0.486c-0.288-0.123-0.604-0.185-0.948-0.185 c-0.791,0-1.396,0.313-1.815,0.939v-0.811h-0.87v5.704H72.636L72.636,113.591z M78.759,106.828v-1.111h-0.967v1.111H78.759 L78.759,106.828z M78.759,113.591v-5.704h-0.967v5.704H78.759L78.759,113.591z M81.917,112.764c-0.144,0-0.254-0.023-0.33-0.07 c-0.077-0.047-0.133-0.109-0.167-0.188c-0.034-0.079-0.051-0.257-0.051-0.532v-3.335h0.972v-0.752h-0.972v-1.993l-0.962,0.58v1.413 h-0.709v0.752h0.709v3.281c0,0.58,0.04,0.961,0.118,1.142c0.079,0.181,0.215,0.326,0.408,0.437 c0.193,0.111,0.466,0.167,0.816,0.167c0.215,0,0.459-0.029,0.73-0.086l-0.14-0.854C82.166,112.751,82.024,112.764,81.917,112.764 L81.917,112.764L81.917,112.764z M86.595,112.646c-0.25,0.186-0.553,0.279-0.907,0.279c-0.477,0-0.874-0.167-1.192-0.5 c-0.319-0.333-0.496-0.813-0.532-1.439h4.254c0.004-0.114,0.006-0.2,0.006-0.258c0-0.941-0.242-1.672-0.726-2.191 c-0.483-0.52-1.106-0.778-1.869-0.778c-0.787,0-1.429,0.265-1.923,0.795c-0.494,0.529-0.741,1.274-0.741,2.234 c0,0.927,0.244,1.647,0.733,2.161c0.489,0.515,1.15,0.771,1.984,0.771c0.663,0,1.207-0.161,1.633-0.483 c0.427-0.322,0.718-0.775,0.876-1.359l-0.999-0.123C87.044,112.162,86.846,112.459,86.595,112.646L86.595,112.646z M84.519,108.998 c0.303-0.297,0.677-0.445,1.12-0.445c0.491,0,0.89,0.186,1.198,0.559c0.2,0.239,0.322,0.6,0.365,1.079h-3.186 C84.049,109.692,84.217,109.295,84.519,108.998L84.519,108.998z M94.002,113.591v-7.874H93.04v2.825 c-0.168-0.233-0.387-0.422-0.655-0.567c-0.269-0.145-0.574-0.217-0.918-0.217c-0.47,0-0.894,0.123-1.273,0.37 c-0.379,0.247-0.664,0.603-0.854,1.066c-0.19,0.464-0.285,0.98-0.285,1.55c0,0.583,0.104,1.1,0.314,1.549 c0.21,0.45,0.505,0.8,0.886,1.051c0.382,0.25,0.8,0.376,1.255,0.376c0.701,0,1.233-0.283,1.595-0.849v0.72H94.002L94.002,113.591z M90.481,109.084c0.288-0.351,0.646-0.526,1.076-0.526c0.44,0,0.812,0.183,1.112,0.548c0.301,0.365,0.451,0.938,0.451,1.719 c0,0.709-0.147,1.236-0.443,1.582c-0.296,0.346-0.654,0.519-1.077,0.519c-0.419,0-0.782-0.182-1.09-0.543 c-0.309-0.361-0.462-0.907-0.462-1.638C90.049,109.988,90.192,109.435,90.481,109.084L90.481,109.084z M99.689,113.591v-6.188 l4.136,6.188h1.069v-7.874h-0.999v6.182l-4.136-6.182H98.69v7.874H99.689L99.689,113.591z M110.437,113.591h1.01 c-0.122-0.219-0.203-0.447-0.245-0.686c-0.041-0.237-0.062-0.807-0.062-1.705v-1.289c0-0.43-0.016-0.727-0.048-0.892 c-0.058-0.265-0.158-0.484-0.301-0.658c-0.144-0.173-0.367-0.317-0.672-0.432c-0.304-0.115-0.7-0.172-1.187-0.172 c-0.491,0-0.922,0.066-1.295,0.201c-0.372,0.134-0.657,0.326-0.854,0.574c-0.197,0.249-0.339,0.576-0.425,0.98l0.945,0.129 c0.104-0.404,0.265-0.687,0.48-0.846c0.217-0.159,0.553-0.239,1.008-0.239c0.486,0,0.854,0.109,1.101,0.328 c0.183,0.161,0.274,0.438,0.274,0.832c0,0.036-0.002,0.12-0.006,0.253c-0.368,0.129-0.943,0.239-1.724,0.333 c-0.384,0.046-0.67,0.095-0.859,0.145c-0.258,0.071-0.49,0.178-0.696,0.317c-0.205,0.14-0.372,0.324-0.499,0.556 c-0.127,0.23-0.19,0.486-0.19,0.766c0,0.476,0.168,0.867,0.505,1.173c0.336,0.307,0.818,0.46,1.444,0.46 c0.38,0,0.735-0.063,1.066-0.188c0.331-0.125,0.676-0.34,1.034-0.645C110.272,113.155,110.337,113.39,110.437,113.591 L110.437,113.591L110.437,113.591z M110.163,111.082c0,0.426-0.052,0.748-0.155,0.967c-0.137,0.283-0.35,0.506-0.64,0.669 c-0.29,0.163-0.621,0.244-0.993,0.244c-0.376,0-0.662-0.086-0.856-0.258c-0.195-0.172-0.293-0.387-0.293-0.645 c0-0.168,0.045-0.321,0.134-0.459c0.09-0.138,0.217-0.243,0.382-0.314c0.164-0.071,0.445-0.136,0.843-0.193 c0.702-0.101,1.228-0.222,1.579-0.365V111.082L110.163,111.082z M114.326,112.764c-0.144,0-0.254-0.023-0.331-0.07 c-0.076-0.047-0.132-0.109-0.166-0.188c-0.034-0.079-0.051-0.257-0.051-0.532v-3.335h0.972v-0.752h-0.972v-1.993l-0.962,0.58v1.413 h-0.709v0.752h0.709v3.281c0,0.58,0.04,0.961,0.118,1.142c0.079,0.181,0.215,0.326,0.408,0.437 c0.193,0.111,0.466,0.167,0.816,0.167c0.215,0,0.459-0.029,0.73-0.086l-0.14-0.854 C114.575,112.751,114.434,112.764,114.326,112.764L114.326,112.764L114.326,112.764z M116.668,106.828v-1.111h-0.967v1.111H116.668 L116.668,106.828z M116.668,113.591v-5.704h-0.967v5.704H116.668L116.668,113.591z M118.519,112.951 c0.492,0.512,1.138,0.769,1.936,0.769c0.498,0,0.957-0.117,1.378-0.35c0.421-0.232,0.741-0.56,0.962-0.98 c0.22-0.42,0.33-0.998,0.33-1.731c0-0.906-0.249-1.616-0.747-2.13c-0.497-0.514-1.139-0.771-1.923-0.771 c-0.705,0-1.303,0.211-1.794,0.634c-0.587,0.508-0.881,1.29-0.881,2.347C117.779,111.701,118.025,112.44,118.519,112.951 L118.519,112.951z M119.251,109.101c0.319-0.362,0.72-0.543,1.203-0.543c0.477,0,0.875,0.182,1.195,0.545 c0.32,0.364,0.48,0.898,0.48,1.604c0,0.748-0.159,1.306-0.478,1.671c-0.319,0.365-0.718,0.548-1.198,0.548 c-0.483,0-0.884-0.182-1.203-0.546c-0.318-0.363-0.478-0.91-0.478-1.641C118.773,110.008,118.933,109.462,119.251,109.101 L119.251,109.101z M125.224,113.591v-3.115c0-0.73,0.149-1.227,0.449-1.488c0.299-0.262,0.654-0.392,1.065-0.392 c0.258,0,0.482,0.058,0.675,0.174c0.191,0.117,0.324,0.272,0.399,0.468c0.075,0.195,0.113,0.489,0.113,0.884v3.47h0.967v-3.508 c0-0.447-0.019-0.761-0.054-0.939c-0.058-0.276-0.158-0.515-0.301-0.715c-0.144-0.2-0.359-0.362-0.647-0.486 c-0.288-0.123-0.604-0.185-0.948-0.185c-0.791,0-1.396,0.313-1.815,0.939v-0.811h-0.87v5.704H125.224L125.224,113.591z M130.731,113.258c0.389,0.308,0.954,0.462,1.695,0.462c0.447,0,0.849-0.078,1.203-0.234c0.354-0.155,0.625-0.376,0.813-0.66 c0.188-0.285,0.282-0.588,0.282-0.91c0-0.33-0.077-0.605-0.231-0.827c-0.153-0.223-0.366-0.392-0.636-0.508 c-0.271-0.116-0.748-0.266-1.432-0.448c-0.473-0.129-0.758-0.212-0.854-0.247c-0.168-0.068-0.292-0.154-0.37-0.258 c-0.079-0.101-0.118-0.214-0.118-0.339c0-0.197,0.095-0.369,0.284-0.516c0.19-0.147,0.507-0.22,0.951-0.22 c0.376,0,0.667,0.082,0.873,0.247c0.205,0.164,0.33,0.394,0.373,0.688l0.945-0.129c-0.062-0.369-0.172-0.664-0.333-0.884 c-0.161-0.221-0.411-0.395-0.749-0.523c-0.339-0.129-0.731-0.193-1.18-0.193c-0.297,0-0.575,0.038-0.835,0.115 c-0.26,0.077-0.465,0.171-0.615,0.282c-0.2,0.143-0.358,0.323-0.476,0.539c-0.116,0.217-0.174,0.452-0.174,0.707 c0,0.279,0.07,0.534,0.212,0.765c0.142,0.232,0.349,0.412,0.623,0.543c0.274,0.131,0.766,0.285,1.475,0.465 c0.526,0.132,0.855,0.241,0.988,0.327c0.189,0.125,0.284,0.297,0.284,0.516c0,0.243-0.107,0.456-0.322,0.637 c-0.215,0.181-0.544,0.271-0.988,0.271c-0.44,0-0.783-0.103-1.028-0.307s-0.395-0.498-0.448-0.881l-0.956,0.15 C130.096,112.493,130.344,112.949,130.731,113.258L130.731,113.258z"/><path d="M12.876,125.592v-0.93H8.042v-2.68h4.356v-0.924H8.042v-2.412h4.651v-0.929H7v7.874H12.876L12.876,125.592z M18.79,125.592 v-7.874h-0.962v2.825c-0.168-0.233-0.387-0.422-0.655-0.567c-0.269-0.145-0.575-0.217-0.918-0.217c-0.469,0-0.894,0.123-1.273,0.37 c-0.38,0.247-0.664,0.603-0.854,1.066c-0.19,0.464-0.285,0.98-0.285,1.55c0,0.583,0.104,1.1,0.314,1.549 c0.209,0.45,0.505,0.8,0.886,1.051c0.381,0.25,0.799,0.376,1.254,0.376c0.702,0,1.233-0.283,1.595-0.849v0.72H18.79L18.79,125.592z M15.269,121.085c0.288-0.351,0.647-0.526,1.077-0.526c0.44,0,0.811,0.183,1.112,0.548c0.301,0.365,0.451,0.938,0.451,1.719 c0,0.709-0.148,1.236-0.443,1.582c-0.295,0.346-0.654,0.519-1.077,0.519c-0.419,0-0.783-0.182-1.09-0.543 c-0.308-0.361-0.462-0.907-0.462-1.638C14.836,121.989,14.98,121.436,15.269,121.085L15.269,121.085z M24.913,125.592v-5.704 h-0.967v3.056c0,0.487-0.053,0.858-0.159,1.114c-0.106,0.257-0.286,0.459-0.54,0.607c-0.254,0.149-0.526,0.223-0.816,0.223 c-0.29,0-0.534-0.072-0.731-0.218c-0.197-0.145-0.326-0.344-0.387-0.599c-0.04-0.175-0.059-0.516-0.059-1.021v-3.163h-0.967v3.534 c0,0.411,0.02,0.712,0.059,0.902c0.057,0.282,0.156,0.521,0.298,0.717c0.142,0.195,0.358,0.357,0.65,0.486 c0.292,0.129,0.606,0.193,0.943,0.193c0.763,0,1.366-0.322,1.81-0.967v0.838H24.913L24.913,125.592z M29.666,124.576 c-0.254,0.232-0.571,0.35-0.951,0.35c-0.473,0-0.856-0.174-1.149-0.521c-0.294-0.348-0.44-0.904-0.44-1.67 c0-0.756,0.152-1.309,0.457-1.657c0.304-0.35,0.7-0.523,1.187-0.523c0.322,0,0.597,0.097,0.824,0.29 c0.227,0.193,0.386,0.481,0.476,0.864l0.94-0.144c-0.111-0.577-0.364-1.022-0.757-1.335c-0.394-0.314-0.901-0.47-1.52-0.47 c-0.491,0-0.945,0.115-1.362,0.346c-0.417,0.231-0.728,0.578-0.932,1.04c-0.204,0.462-0.306,1-0.306,1.616 c0,0.952,0.237,1.684,0.712,2.194c0.475,0.51,1.102,0.766,1.883,0.766c0.623,0,1.148-0.186,1.576-0.557 c0.428-0.37,0.694-0.883,0.798-1.538l-0.951-0.124C30.081,123.985,29.92,124.344,29.666,124.576L29.666,124.576z M35.843,125.592 h1.01c-0.122-0.219-0.204-0.447-0.245-0.686c-0.041-0.237-0.062-0.807-0.062-1.705v-1.289c0-0.43-0.016-0.727-0.048-0.892 c-0.058-0.265-0.158-0.484-0.301-0.658c-0.144-0.173-0.367-0.317-0.671-0.432c-0.305-0.115-0.7-0.172-1.187-0.172 c-0.491,0-0.922,0.066-1.294,0.201c-0.373,0.134-0.657,0.326-0.854,0.574c-0.197,0.249-0.338,0.576-0.424,0.98l0.945,0.129 c0.103-0.404,0.264-0.687,0.48-0.846c0.217-0.159,0.552-0.239,1.007-0.239c0.487,0,0.854,0.109,1.101,0.328 c0.183,0.161,0.274,0.438,0.274,0.832c0,0.036-0.002,0.12-0.005,0.253c-0.369,0.129-0.944,0.239-1.724,0.333 c-0.383,0.046-0.67,0.095-0.859,0.145c-0.258,0.072-0.49,0.178-0.696,0.317c-0.206,0.14-0.373,0.324-0.5,0.556 c-0.127,0.23-0.19,0.486-0.19,0.766c0,0.476,0.168,0.867,0.505,1.173c0.336,0.307,0.818,0.46,1.445,0.46 c0.379,0,0.735-0.063,1.066-0.188c0.331-0.125,0.676-0.34,1.034-0.645C35.678,125.156,35.742,125.391,35.843,125.592 L35.843,125.592L35.843,125.592z M35.569,123.083c0,0.427-0.052,0.749-0.156,0.967c-0.136,0.283-0.349,0.506-0.639,0.669 c-0.29,0.163-0.622,0.244-0.994,0.244c-0.376,0-0.662-0.086-0.857-0.258c-0.195-0.172-0.292-0.387-0.292-0.645 c0-0.168,0.044-0.321,0.134-0.459c0.089-0.138,0.216-0.242,0.381-0.314c0.165-0.071,0.446-0.136,0.843-0.193 c0.702-0.1,1.228-0.222,1.579-0.365V123.083L35.569,123.083z M39.731,124.765c-0.143,0-0.253-0.023-0.33-0.07 c-0.077-0.046-0.132-0.109-0.167-0.188c-0.034-0.079-0.051-0.257-0.051-0.532v-3.335h0.972v-0.752h-0.972v-1.993l-0.961,0.58v1.413 h-0.709v0.752h0.709v3.281c0,0.58,0.039,0.961,0.118,1.142c0.079,0.181,0.215,0.326,0.408,0.437 c0.193,0.111,0.465,0.167,0.816,0.167c0.215,0,0.458-0.029,0.731-0.086l-0.14-0.854C39.98,124.752,39.839,124.765,39.731,124.765 L39.731,124.765L39.731,124.765z M42.073,118.829v-1.111h-0.967v1.111H42.073L42.073,118.829z M42.073,125.592v-5.704h-0.967v5.704 H42.073L42.073,125.592z M43.923,124.952c0.492,0.513,1.138,0.769,1.937,0.769c0.498,0,0.957-0.117,1.377-0.35 s0.741-0.56,0.961-0.98c0.22-0.42,0.331-0.998,0.331-1.731c0-0.906-0.249-1.616-0.747-2.13c-0.498-0.514-1.139-0.771-1.923-0.771 c-0.706,0-1.304,0.211-1.794,0.634c-0.587,0.508-0.881,1.291-0.881,2.347C43.185,123.703,43.431,124.44,43.923,124.952 L43.923,124.952z M44.657,121.102c0.318-0.362,0.72-0.543,1.203-0.543c0.476,0,0.875,0.182,1.195,0.545 c0.32,0.364,0.481,0.898,0.481,1.603c0,0.748-0.16,1.306-0.478,1.671c-0.319,0.365-0.718,0.548-1.198,0.548 c-0.483,0-0.885-0.182-1.203-0.546c-0.319-0.363-0.478-0.91-0.478-1.641C44.179,122.009,44.338,121.463,44.657,121.102 L44.657,121.102z M50.629,125.592v-3.115c0-0.73,0.149-1.227,0.448-1.488c0.299-0.262,0.654-0.392,1.066-0.392 c0.258,0,0.482,0.058,0.674,0.174c0.191,0.117,0.325,0.272,0.4,0.468c0.075,0.195,0.113,0.489,0.113,0.884v3.47h0.967v-3.508 c0-0.447-0.018-0.761-0.054-0.939c-0.058-0.276-0.158-0.514-0.301-0.715c-0.144-0.2-0.359-0.362-0.647-0.486 c-0.288-0.123-0.604-0.185-0.948-0.185c-0.792,0-1.396,0.313-1.815,0.939v-0.811h-0.87v5.704H50.629L50.629,125.592z M59.696,125.592h1.01c-0.122-0.219-0.204-0.447-0.245-0.686c-0.041-0.237-0.062-0.807-0.062-1.705v-1.289 c0-0.43-0.016-0.727-0.048-0.892c-0.058-0.265-0.158-0.484-0.301-0.658c-0.144-0.173-0.367-0.317-0.671-0.432 c-0.305-0.115-0.7-0.172-1.187-0.172c-0.491,0-0.922,0.066-1.294,0.201c-0.373,0.134-0.657,0.326-0.854,0.574 c-0.197,0.249-0.338,0.576-0.424,0.98l0.945,0.129c0.104-0.404,0.264-0.687,0.48-0.846c0.217-0.159,0.552-0.239,1.007-0.239 c0.487,0,0.854,0.109,1.101,0.328c0.183,0.161,0.274,0.438,0.274,0.832c0,0.036-0.002,0.12-0.005,0.253 c-0.369,0.129-0.944,0.239-1.724,0.333c-0.383,0.046-0.67,0.095-0.859,0.145c-0.258,0.072-0.49,0.178-0.696,0.317 c-0.206,0.14-0.373,0.324-0.5,0.556c-0.127,0.23-0.19,0.486-0.19,0.766c0,0.476,0.168,0.867,0.505,1.173 c0.336,0.307,0.818,0.46,1.445,0.46c0.379,0,0.735-0.063,1.066-0.188c0.331-0.125,0.676-0.34,1.034-0.645 C59.531,125.156,59.595,125.391,59.696,125.592L59.696,125.592L59.696,125.592z M59.422,123.083c0,0.427-0.052,0.749-0.156,0.967 c-0.136,0.283-0.349,0.506-0.639,0.669c-0.29,0.163-0.622,0.244-0.994,0.244c-0.376,0-0.662-0.086-0.857-0.258 c-0.195-0.172-0.292-0.387-0.292-0.645c0-0.168,0.044-0.321,0.134-0.459c0.089-0.138,0.216-0.242,0.381-0.314 c0.165-0.071,0.446-0.136,0.843-0.193c0.702-0.1,1.228-0.222,1.579-0.365V123.083L59.422,123.083z M62.843,125.592v-7.874h-0.967 v7.874H62.843L62.843,125.592z M65.142,125.592c-0.011,0.325-0.064,0.575-0.161,0.749c-0.097,0.174-0.247,0.305-0.451,0.395 l0.269,0.414c0.312-0.137,0.539-0.329,0.682-0.578c0.143-0.249,0.215-0.575,0.215-0.979v-1.102h-1.101v1.102H65.142L65.142,125.592 z M70.655,124.477c0.274,0.418,0.652,0.73,1.133,0.938c0.481,0.208,1.079,0.312,1.792,0.312c0.562,0,1.068-0.103,1.517-0.309 c0.449-0.206,0.794-0.494,1.034-0.865c0.24-0.37,0.36-0.765,0.36-1.184c0-0.423-0.109-0.796-0.328-1.12 c-0.219-0.324-0.557-0.592-1.015-0.803c-0.315-0.144-0.896-0.311-1.743-0.503c-0.847-0.191-1.371-0.378-1.571-0.561 c-0.204-0.183-0.306-0.416-0.306-0.698c0-0.326,0.144-0.604,0.432-0.836c0.288-0.23,0.748-0.346,1.378-0.346 c0.605,0,1.063,0.127,1.372,0.381c0.31,0.254,0.492,0.631,0.545,1.128l0.999-0.075c-0.018-0.462-0.147-0.875-0.387-1.24 c-0.24-0.365-0.583-0.643-1.029-0.83c-0.446-0.188-0.961-0.282-1.544-0.282c-0.53,0-1.012,0.09-1.445,0.269 c-0.434,0.18-0.763,0.441-0.988,0.787c-0.226,0.346-0.338,0.717-0.338,1.114c0,0.362,0.092,0.688,0.276,0.98 s0.465,0.536,0.841,0.733c0.29,0.153,0.796,0.317,1.52,0.491c0.723,0.174,1.19,0.302,1.402,0.384 c0.329,0.125,0.565,0.28,0.709,0.465c0.143,0.185,0.215,0.4,0.215,0.647c0,0.243-0.075,0.468-0.223,0.674 c-0.148,0.206-0.375,0.368-0.679,0.486c-0.305,0.118-0.655,0.177-1.053,0.177c-0.448,0-0.851-0.078-1.208-0.233 c-0.358-0.156-0.623-0.36-0.792-0.612c-0.17-0.253-0.278-0.576-0.325-0.97l-0.983,0.086 C70.237,123.588,70.381,124.06,70.655,124.477L70.655,124.477z M81.029,124.576c-0.254,0.232-0.571,0.35-0.95,0.35 c-0.473,0-0.856-0.174-1.149-0.521c-0.294-0.348-0.44-0.904-0.44-1.67c0-0.756,0.152-1.309,0.456-1.657 c0.305-0.35,0.7-0.523,1.188-0.523c0.322,0,0.597,0.097,0.824,0.29c0.228,0.193,0.386,0.481,0.476,0.864l0.939-0.144 c-0.11-0.577-0.363-1.022-0.757-1.335c-0.394-0.314-0.9-0.47-1.52-0.47c-0.49,0-0.944,0.115-1.361,0.346 c-0.417,0.231-0.728,0.578-0.932,1.04c-0.204,0.462-0.307,1-0.307,1.616c0,0.952,0.237,1.684,0.712,2.194 c0.475,0.51,1.102,0.766,1.883,0.766c0.623,0,1.148-0.186,1.576-0.557c0.428-0.37,0.693-0.883,0.798-1.538l-0.951-0.124 C81.445,123.985,81.284,124.344,81.029,124.576L81.029,124.576z M84.263,118.829v-1.111h-0.967v1.111H84.263L84.263,118.829z M84.263,125.592v-5.704h-0.967v5.704H84.263L84.263,125.592z M89.043,124.647c-0.25,0.185-0.553,0.279-0.907,0.279 c-0.476,0-0.874-0.167-1.192-0.5c-0.319-0.333-0.496-0.813-0.532-1.439h4.254c0.004-0.114,0.006-0.2,0.006-0.258 c0-0.941-0.242-1.672-0.726-2.191c-0.483-0.52-1.106-0.778-1.869-0.778c-0.787,0-1.429,0.265-1.923,0.795 c-0.494,0.529-0.741,1.274-0.741,2.234c0,0.927,0.245,1.647,0.733,2.161c0.489,0.515,1.15,0.771,1.984,0.771 c0.663,0,1.207-0.161,1.633-0.483c0.427-0.322,0.718-0.775,0.876-1.359l-0.999-0.123C89.492,124.163,89.294,124.46,89.043,124.647 L89.043,124.647z M86.968,120.999c0.302-0.297,0.676-0.445,1.119-0.445c0.491,0,0.89,0.186,1.198,0.559 c0.2,0.239,0.322,0.6,0.365,1.079h-3.186C86.497,121.693,86.665,121.297,86.968,120.999L86.968,120.999z M92.819,125.592v-3.115 c0-0.73,0.15-1.227,0.448-1.488c0.299-0.262,0.654-0.392,1.066-0.392c0.258,0,0.482,0.058,0.674,0.174 c0.191,0.117,0.325,0.272,0.4,0.468c0.075,0.195,0.112,0.489,0.112,0.884v3.47h0.967v-3.508c0-0.447-0.018-0.761-0.054-0.939 c-0.057-0.276-0.157-0.514-0.301-0.715c-0.143-0.2-0.358-0.362-0.646-0.486c-0.289-0.123-0.604-0.185-0.948-0.185 c-0.792,0-1.396,0.313-1.815,0.939v-0.811h-0.87v5.704H92.819L92.819,125.592z M99.656,124.765c-0.143,0-0.253-0.023-0.33-0.07 c-0.077-0.046-0.133-0.109-0.166-0.188c-0.034-0.079-0.052-0.257-0.052-0.532v-3.335h0.973v-0.752h-0.973v-1.993l-0.961,0.58v1.413 h-0.709v0.752h0.709v3.281c0,0.58,0.039,0.961,0.118,1.142c0.078,0.181,0.215,0.326,0.408,0.437 c0.193,0.111,0.465,0.167,0.816,0.167c0.215,0,0.458-0.029,0.731-0.086l-0.14-0.854C99.905,124.752,99.764,124.765,99.656,124.765 L99.656,124.765L99.656,124.765z M101.998,118.829v-1.111h-0.967v1.111H101.998L101.998,118.829z M101.998,125.592v-5.704h-0.967 v5.704H101.998L101.998,125.592z M104.694,125.592v-4.958h1.106v-0.746h-1.106v-0.371c0-0.43,0.062-0.711,0.183-0.843 c0.122-0.133,0.35-0.199,0.683-0.199c0.157,0,0.331,0.017,0.521,0.049l0.15-0.816c-0.301-0.083-0.628-0.124-0.982-0.124 c-0.526,0-0.911,0.15-1.155,0.451c-0.243,0.301-0.365,0.734-0.365,1.3v0.554h-0.859v0.746h0.859v4.958H104.694L104.694,125.592z M107.498,118.829v-1.111h-0.967v1.111H107.498L107.498,118.829z M107.498,125.592v-5.704h-0.967v5.704H107.498L107.498,125.592z M112.209,124.576c-0.255,0.232-0.571,0.35-0.951,0.35c-0.473,0-0.855-0.174-1.149-0.521c-0.293-0.348-0.44-0.904-0.44-1.67 c0-0.756,0.152-1.309,0.457-1.657c0.304-0.35,0.7-0.523,1.186-0.523c0.322,0,0.598,0.097,0.825,0.29 c0.227,0.193,0.386,0.481,0.475,0.864l0.94-0.144c-0.111-0.577-0.363-1.022-0.758-1.335c-0.394-0.314-0.9-0.47-1.52-0.47 c-0.491,0-0.944,0.115-1.361,0.346c-0.418,0.231-0.729,0.578-0.933,1.04s-0.306,1-0.306,1.616c0,0.952,0.237,1.684,0.712,2.194 c0.474,0.51,1.102,0.766,1.882,0.766c0.623,0,1.148-0.186,1.577-0.557c0.428-0.37,0.693-0.883,0.797-1.538l-0.95-0.124 C112.624,123.985,112.463,124.344,112.209,124.576L112.209,124.576z M121.441,125.592h1.01c-0.121-0.219-0.203-0.447-0.244-0.686 c-0.041-0.237-0.062-0.807-0.062-1.705v-1.289c0-0.43-0.017-0.727-0.049-0.892c-0.057-0.265-0.157-0.484-0.301-0.658 c-0.143-0.173-0.367-0.317-0.671-0.432c-0.305-0.115-0.7-0.172-1.188-0.172c-0.49,0-0.922,0.066-1.294,0.201 c-0.373,0.134-0.657,0.326-0.854,0.574c-0.196,0.249-0.338,0.576-0.424,0.98l0.945,0.129c0.104-0.404,0.264-0.687,0.481-0.846 c0.217-0.159,0.553-0.239,1.007-0.239c0.487,0,0.854,0.109,1.102,0.328c0.183,0.161,0.273,0.438,0.273,0.832 c0,0.036-0.002,0.12-0.005,0.253c-0.369,0.129-0.943,0.239-1.725,0.333c-0.383,0.046-0.669,0.095-0.859,0.145 c-0.258,0.072-0.489,0.178-0.695,0.317c-0.206,0.14-0.372,0.324-0.499,0.556c-0.128,0.23-0.191,0.486-0.191,0.766 c0,0.476,0.169,0.867,0.505,1.173c0.337,0.307,0.818,0.46,1.445,0.46c0.379,0,0.734-0.063,1.066-0.188 c0.331-0.125,0.676-0.34,1.033-0.645C121.277,125.156,121.342,125.391,121.441,125.592L121.441,125.592L121.441,125.592z M121.168,123.083c0,0.427-0.052,0.749-0.156,0.967c-0.136,0.283-0.349,0.506-0.639,0.669c-0.29,0.163-0.621,0.244-0.994,0.244 c-0.376,0-0.661-0.086-0.856-0.258c-0.195-0.172-0.293-0.387-0.293-0.645c0-0.168,0.045-0.321,0.135-0.459 c0.089-0.138,0.217-0.242,0.381-0.314c0.165-0.071,0.446-0.136,0.844-0.193c0.701-0.1,1.228-0.222,1.579-0.365V123.083 L121.168,123.083z M124.61,125.592v-3.115c0-0.73,0.149-1.227,0.449-1.488c0.299-0.262,0.654-0.392,1.065-0.392 c0.258,0,0.482,0.058,0.675,0.174c0.191,0.117,0.324,0.272,0.399,0.468c0.075,0.195,0.113,0.489,0.113,0.884v3.47h0.967v-3.508 c0-0.447-0.019-0.761-0.054-0.939c-0.058-0.276-0.158-0.514-0.301-0.715c-0.144-0.2-0.359-0.362-0.647-0.486 c-0.288-0.123-0.604-0.185-0.948-0.185c-0.791,0-1.396,0.313-1.815,0.939v-0.811h-0.87v5.704H124.61L124.61,125.592z"/><path d="M134.345,125.592v-7.874h-0.961v2.825c-0.169-0.233-0.387-0.422-0.656-0.567c-0.267-0.145-0.574-0.217-0.918-0.217 c-0.469,0-0.894,0.123-1.273,0.37c-0.379,0.247-0.664,0.603-0.854,1.066c-0.189,0.464-0.285,0.98-0.285,1.55 c0,0.583,0.105,1.1,0.314,1.549c0.21,0.45,0.505,0.8,0.887,1.051c0.381,0.25,0.799,0.376,1.254,0.376 c0.702,0,1.233-0.283,1.596-0.849v0.72H134.345L134.345,125.592z M130.824,121.085c0.288-0.351,0.648-0.526,1.077-0.526 c0.439,0,0.81,0.183,1.111,0.548c0.301,0.365,0.451,0.938,0.451,1.719c0,0.709-0.148,1.236-0.443,1.582 c-0.295,0.346-0.654,0.519-1.076,0.519c-0.42,0-0.783-0.182-1.091-0.543c-0.308-0.361-0.462-0.907-0.462-1.638 C130.392,121.989,130.536,121.436,130.824,121.085L130.824,121.085z"/><path d="M37.471,136.33c-0.405,0.337-0.899,0.505-1.482,0.505c-0.48,0-0.926-0.123-1.337-0.37c-0.412-0.247-0.715-0.621-0.91-1.12 c-0.195-0.5-0.293-1.084-0.293-1.754c0-0.518,0.083-1.023,0.247-1.512c0.165-0.489,0.45-0.878,0.857-1.168 c0.406-0.29,0.912-0.435,1.517-0.435c0.526,0,0.963,0.131,1.311,0.393c0.347,0.261,0.612,0.679,0.795,1.251l1.026-0.241 c-0.211-0.728-0.586-1.291-1.123-1.692c-0.537-0.4-1.2-0.602-1.987-0.602c-0.695,0-1.331,0.158-1.909,0.476 c-0.579,0.316-1.025,0.78-1.337,1.391c-0.313,0.611-0.47,1.326-0.47,2.146c0,0.752,0.139,1.455,0.417,2.11 c0.277,0.655,0.682,1.156,1.214,1.501c0.532,0.346,1.222,0.519,2.07,0.519c0.82,0,1.514-0.225,2.082-0.674 c0.567-0.449,0.96-1.102,1.179-1.958l-1.042-0.263C38.149,135.494,37.875,135.994,37.471,136.33L37.471,136.33z M45.098,137.593 v-5.704h-0.967v3.056c0,0.487-0.053,0.858-0.158,1.114c-0.106,0.257-0.286,0.459-0.54,0.607c-0.254,0.149-0.526,0.223-0.816,0.223 c-0.29,0-0.534-0.072-0.73-0.218c-0.197-0.145-0.326-0.345-0.387-0.599c-0.04-0.176-0.059-0.516-0.059-1.021v-3.163h-0.967v3.534 c0,0.411,0.02,0.712,0.059,0.902c0.057,0.282,0.157,0.521,0.298,0.717c0.141,0.195,0.358,0.357,0.65,0.486 c0.292,0.129,0.606,0.193,0.942,0.193c0.763,0,1.366-0.322,1.81-0.967v0.838H45.098L45.098,137.593z M47.558,137.593v-7.874h-0.967 v7.874H47.558L47.558,137.593z M50.743,136.766c-0.143,0-0.253-0.023-0.33-0.07c-0.077-0.047-0.133-0.109-0.167-0.188 c-0.034-0.079-0.051-0.256-0.051-0.532v-3.335h0.972v-0.752h-0.972v-1.993l-0.961,0.58v1.413h-0.709v0.752h0.709v3.281 c0,0.58,0.039,0.961,0.118,1.142c0.079,0.181,0.215,0.327,0.408,0.438c0.193,0.111,0.465,0.167,0.816,0.167 c0.215,0,0.458-0.029,0.73-0.086l-0.14-0.854C50.992,136.753,50.85,136.766,50.743,136.766L50.743,136.766L50.743,136.766z M56.715,137.593v-5.704h-0.967v3.056c0,0.487-0.053,0.858-0.158,1.114c-0.106,0.257-0.286,0.459-0.54,0.607 c-0.254,0.149-0.526,0.223-0.816,0.223c-0.29,0-0.534-0.072-0.731-0.218c-0.197-0.145-0.326-0.345-0.387-0.599 c-0.04-0.176-0.059-0.516-0.059-1.021v-3.163h-0.967v3.534c0,0.411,0.02,0.712,0.059,0.902c0.057,0.282,0.157,0.521,0.298,0.717 c0.141,0.195,0.358,0.357,0.65,0.486c0.291,0.129,0.606,0.193,0.942,0.193c0.763,0,1.366-0.322,1.81-0.967v0.838H56.715 L56.715,137.593z M59.186,137.593v-2.986c0-0.408,0.054-0.784,0.161-1.128c0.072-0.226,0.191-0.402,0.36-0.529 c0.168-0.127,0.358-0.19,0.569-0.19c0.236,0,0.473,0.069,0.709,0.209l0.333-0.896c-0.337-0.208-0.668-0.311-0.994-0.311 c-0.226,0-0.432,0.064-0.62,0.193c-0.188,0.129-0.393,0.395-0.615,0.8v-0.864h-0.87v5.704H59.186L59.186,137.593z M65.809,137.593 h1.01c-0.122-0.219-0.203-0.447-0.244-0.686c-0.042-0.237-0.062-0.806-0.062-1.705v-1.289c0-0.43-0.016-0.727-0.048-0.892 c-0.057-0.265-0.158-0.484-0.301-0.658c-0.143-0.173-0.367-0.317-0.671-0.432c-0.304-0.115-0.7-0.172-1.187-0.172 c-0.491,0-0.922,0.066-1.294,0.201c-0.373,0.134-0.657,0.326-0.854,0.574c-0.197,0.249-0.338,0.576-0.424,0.98l0.945,0.129 c0.104-0.404,0.264-0.687,0.481-0.846c0.216-0.159,0.552-0.239,1.007-0.239c0.487,0,0.854,0.109,1.101,0.328 c0.183,0.161,0.274,0.438,0.274,0.832c0,0.036-0.002,0.12-0.005,0.253c-0.369,0.129-0.943,0.239-1.724,0.333 c-0.383,0.046-0.669,0.095-0.859,0.145c-0.258,0.071-0.49,0.178-0.695,0.317c-0.206,0.14-0.373,0.324-0.5,0.556 c-0.127,0.23-0.191,0.486-0.191,0.766c0,0.476,0.169,0.867,0.505,1.173c0.336,0.307,0.818,0.46,1.445,0.46 c0.379,0,0.735-0.064,1.066-0.189c0.331-0.125,0.676-0.34,1.034-0.645C65.644,137.157,65.708,137.392,65.809,137.593 L65.809,137.593L65.809,137.593z M65.535,135.084c0,0.426-0.052,0.748-0.156,0.967c-0.136,0.283-0.349,0.506-0.639,0.669 c-0.29,0.163-0.621,0.244-0.994,0.244c-0.376,0-0.662-0.086-0.857-0.258c-0.195-0.172-0.293-0.387-0.293-0.645 c0-0.168,0.045-0.321,0.134-0.459c0.089-0.138,0.217-0.243,0.381-0.314c0.165-0.071,0.446-0.136,0.843-0.193 c0.702-0.101,1.228-0.222,1.579-0.365V135.084L65.535,135.084z M68.956,137.593v-7.874h-0.967v7.874H68.956L68.956,137.593z M73.769,135.724c0.301,0.619,0.743,1.108,1.327,1.466c0.584,0.358,1.246,0.537,1.988,0.537c0.684,0,1.321-0.162,1.912-0.486 c0.591-0.323,1.047-0.801,1.369-1.431c0.322-0.631,0.483-1.345,0.483-2.144c0-0.787-0.153-1.492-0.459-2.113 c-0.307-0.621-0.751-1.105-1.335-1.453c-0.584-0.348-1.239-0.52-1.966-0.52c-1.11,0-2.016,0.369-2.718,1.108 c-0.702,0.74-1.053,1.763-1.053,3.07C73.317,134.448,73.468,135.104,73.769,135.724L73.769,135.724z M75.189,131.235 c0.532-0.506,1.166-0.76,1.904-0.76c0.518,0,0.987,0.132,1.404,0.394c0.417,0.264,0.733,0.634,0.95,1.112 c0.217,0.478,0.325,1.037,0.325,1.679c0,1.013-0.253,1.796-0.76,2.347c-0.507,0.552-1.152,0.827-1.937,0.827 c-0.77,0-1.41-0.272-1.92-0.819c-0.51-0.546-0.766-1.293-0.766-2.242C74.392,132.588,74.658,131.742,75.189,131.235L75.189,131.235 z M83.023,137.593v-2.986c0-0.408,0.054-0.784,0.161-1.128c0.071-0.226,0.191-0.402,0.359-0.529c0.168-0.127,0.358-0.19,0.569-0.19 c0.236,0,0.473,0.069,0.709,0.209l0.333-0.896c-0.337-0.208-0.668-0.311-0.993-0.311c-0.226,0-0.433,0.064-0.621,0.193 c-0.188,0.129-0.393,0.395-0.614,0.8v-0.864h-0.87v5.704H83.023L83.023,137.593z M86.16,139.448 c0.419,0.306,0.968,0.459,1.648,0.459c0.573,0,1.056-0.107,1.447-0.322c0.393-0.215,0.679-0.508,0.859-0.878 c0.181-0.371,0.272-1,0.272-1.888v-4.931h-0.892v0.688c-0.437-0.545-0.992-0.816-1.665-0.816c-0.505,0-0.944,0.125-1.318,0.376 c-0.374,0.25-0.66,0.605-0.856,1.065c-0.197,0.461-0.296,0.963-0.296,1.507c0,0.792,0.215,1.47,0.645,2.036 c0.43,0.566,1.037,0.849,1.821,0.849c0.63,0,1.156-0.249,1.579-0.747c0.003,0.631-0.021,1.044-0.07,1.241 c-0.086,0.322-0.251,0.572-0.494,0.752c-0.243,0.179-0.589,0.268-1.036,0.268c-0.416,0-0.743-0.09-0.983-0.268 c-0.179-0.133-0.288-0.344-0.327-0.634l-0.941-0.14C85.538,138.681,85.741,139.142,86.16,139.448L86.16,139.448z M86.805,133.083 c0.301-0.349,0.666-0.523,1.096-0.523c0.437,0,0.81,0.178,1.119,0.532c0.31,0.354,0.465,0.881,0.465,1.579 c0,0.73-0.15,1.267-0.451,1.608s-0.673,0.513-1.117,0.513c-0.447,0-0.82-0.172-1.117-0.516c-0.297-0.344-0.445-0.89-0.445-1.638 C86.353,133.951,86.504,133.433,86.805,133.083L86.805,133.083z M95.764,137.593h1.01c-0.122-0.219-0.204-0.447-0.245-0.686 c-0.041-0.237-0.062-0.806-0.062-1.705v-1.289c0-0.43-0.016-0.727-0.048-0.892c-0.058-0.265-0.158-0.484-0.301-0.658 c-0.144-0.173-0.367-0.317-0.672-0.432c-0.305-0.115-0.7-0.172-1.187-0.172c-0.491,0-0.923,0.066-1.295,0.201 c-0.372,0.134-0.657,0.326-0.854,0.574c-0.197,0.249-0.339,0.576-0.425,0.98l0.945,0.129c0.104-0.404,0.264-0.687,0.48-0.846 c0.217-0.159,0.553-0.239,1.008-0.239c0.486,0,0.854,0.109,1.101,0.328c0.183,0.161,0.274,0.438,0.274,0.832 c0,0.036-0.002,0.12-0.006,0.253c-0.369,0.129-0.943,0.239-1.724,0.333c-0.384,0.046-0.67,0.095-0.859,0.145 c-0.258,0.071-0.49,0.178-0.696,0.317c-0.206,0.14-0.372,0.324-0.499,0.556c-0.127,0.23-0.19,0.486-0.19,0.766 c0,0.476,0.168,0.867,0.505,1.173c0.336,0.307,0.817,0.46,1.444,0.46c0.38,0,0.735-0.064,1.066-0.189 c0.331-0.125,0.676-0.34,1.034-0.645C95.599,137.157,95.663,137.392,95.764,137.593L95.764,137.593L95.764,137.593z M95.489,135.084c0,0.426-0.052,0.748-0.155,0.967c-0.137,0.283-0.35,0.506-0.64,0.669c-0.29,0.163-0.621,0.244-0.993,0.244 c-0.376,0-0.662-0.086-0.857-0.258c-0.195-0.172-0.292-0.387-0.292-0.645c0-0.168,0.044-0.321,0.134-0.459 c0.09-0.138,0.217-0.243,0.382-0.314c0.164-0.071,0.445-0.136,0.843-0.193c0.702-0.101,1.229-0.222,1.579-0.365V135.084 L95.489,135.084z M98.933,137.593v-3.115c0-0.73,0.149-1.227,0.448-1.488c0.299-0.261,0.654-0.392,1.066-0.392 c0.258,0,0.482,0.058,0.674,0.174c0.191,0.117,0.325,0.272,0.4,0.468c0.075,0.195,0.112,0.489,0.112,0.884v3.47h0.967v-3.508 c0-0.447-0.018-0.761-0.054-0.939c-0.058-0.276-0.157-0.515-0.301-0.715c-0.144-0.2-0.359-0.362-0.647-0.486 c-0.288-0.123-0.604-0.184-0.947-0.184c-0.792,0-1.396,0.313-1.815,0.939v-0.811h-0.87v5.704H98.933L98.933,137.593z M105.056,130.83v-1.111h-0.967v1.111H105.056L105.056,130.83z M105.056,137.593v-5.704h-0.967v5.704H105.056L105.056,137.593z M111.065,137.593v-0.833h-2.637c-0.38,0-0.786,0.017-1.22,0.049l0.597-0.661l3.088-3.62v-0.639h-4.662v0.784h2.326 c0.314,0,0.678-0.011,1.09-0.032l-3.631,4.168v0.784H111.065L111.065,137.593z M115.942,137.593h1.01 c-0.122-0.219-0.203-0.447-0.244-0.686c-0.041-0.237-0.062-0.806-0.062-1.705v-1.289c0-0.43-0.017-0.727-0.049-0.892 c-0.058-0.265-0.157-0.484-0.301-0.658c-0.144-0.173-0.367-0.317-0.671-0.432c-0.305-0.115-0.7-0.172-1.188-0.172 c-0.49,0-0.922,0.066-1.294,0.201c-0.373,0.134-0.657,0.326-0.854,0.574c-0.197,0.249-0.338,0.576-0.424,0.98l0.945,0.129 c0.104-0.404,0.264-0.687,0.481-0.846c0.217-0.159,0.552-0.239,1.007-0.239c0.487,0,0.854,0.109,1.102,0.328 c0.183,0.161,0.273,0.438,0.273,0.832c0,0.036-0.002,0.12-0.005,0.253c-0.369,0.129-0.944,0.239-1.725,0.333 c-0.383,0.046-0.67,0.095-0.859,0.145c-0.258,0.071-0.489,0.178-0.695,0.317c-0.206,0.14-0.373,0.324-0.5,0.556 c-0.127,0.23-0.19,0.486-0.19,0.766c0,0.476,0.168,0.867,0.505,1.173c0.337,0.307,0.818,0.46,1.445,0.46 c0.379,0,0.734-0.064,1.065-0.189c0.331-0.125,0.676-0.34,1.034-0.645C115.777,137.157,115.842,137.392,115.942,137.593 L115.942,137.593L115.942,137.593z M115.669,135.084c0,0.426-0.053,0.748-0.156,0.967c-0.136,0.283-0.349,0.506-0.639,0.669 c-0.29,0.163-0.622,0.244-0.994,0.244c-0.376,0-0.661-0.086-0.856-0.258c-0.195-0.172-0.293-0.387-0.293-0.645 c0-0.168,0.045-0.321,0.135-0.459c0.089-0.138,0.216-0.243,0.381-0.314c0.165-0.071,0.446-0.136,0.844-0.193 c0.701-0.101,1.228-0.222,1.579-0.365V135.084L115.669,135.084z M119.831,136.766c-0.144,0-0.253-0.023-0.33-0.07 c-0.077-0.047-0.133-0.109-0.167-0.188c-0.034-0.079-0.051-0.256-0.051-0.532v-3.335h0.973v-0.752h-0.973v-1.993l-0.961,0.58v1.413 h-0.709v0.752h0.709v3.281c0,0.58,0.039,0.961,0.118,1.142c0.078,0.181,0.215,0.327,0.408,0.438 c0.193,0.111,0.465,0.167,0.816,0.167c0.215,0,0.458-0.029,0.73-0.086l-0.14-0.854C120.08,136.753,119.938,136.766,119.831,136.766 L119.831,136.766L119.831,136.766z M122.173,130.83v-1.111h-0.967v1.111H122.173L122.173,130.83z M122.173,137.593v-5.704h-0.967 v5.704H122.173L122.173,137.593z M124.023,136.953c0.492,0.512,1.138,0.769,1.937,0.769c0.497,0,0.956-0.117,1.377-0.35 c0.421-0.233,0.741-0.56,0.962-0.98c0.22-0.42,0.33-0.998,0.33-1.731c0-0.906-0.249-1.616-0.746-2.13 c-0.498-0.514-1.139-0.77-1.923-0.77c-0.706,0-1.304,0.211-1.794,0.634c-0.588,0.508-0.881,1.29-0.881,2.347 C123.285,135.703,123.531,136.441,124.023,136.953L124.023,136.953z M124.757,133.103c0.318-0.362,0.72-0.543,1.203-0.543 c0.475,0,0.874,0.182,1.194,0.545c0.32,0.364,0.481,0.898,0.481,1.603c0,0.749-0.16,1.306-0.479,1.671 c-0.318,0.365-0.718,0.548-1.197,0.548c-0.483,0-0.885-0.182-1.203-0.546c-0.319-0.363-0.479-0.91-0.479-1.641 C124.278,134.01,124.437,133.464,124.757,133.103L124.757,133.103z M130.729,137.593v-3.115c0-0.73,0.149-1.227,0.448-1.488 c0.299-0.261,0.654-0.392,1.066-0.392c0.258,0,0.482,0.058,0.674,0.174c0.191,0.117,0.325,0.272,0.4,0.468 c0.075,0.195,0.112,0.489,0.112,0.884v3.47h0.967v-3.508c0-0.447-0.018-0.761-0.054-0.939c-0.058-0.276-0.157-0.515-0.301-0.715 c-0.144-0.2-0.359-0.362-0.648-0.486c-0.288-0.123-0.603-0.184-0.947-0.184c-0.792,0-1.396,0.313-1.815,0.939v-0.811h-0.87v5.704 H130.729L130.729,137.593z"/></g></svg>